<svg width="99" height="44" viewBox="0 0 99 44" fill="none" xmlns="http://www.w3.org/2000/svg">
<path d="M36.4251 21.3365C35.9551 21.3365 35.5222 21.4231 35.1264 21.5962C34.7307 21.7694 34.372 22.0168 34.0751 22.3136C33.7783 22.6104 33.5433 22.9691 33.3701 23.3649C33.197 23.7731 33.1104 24.206 33.1104 24.6512C33.1104 25.1212 33.197 25.5541 33.3701 25.9499C33.5433 26.3457 33.7783 26.7044 34.0751 27.0013C34.372 27.2981 34.7307 27.5331 35.1264 27.7063C35.5222 27.8794 35.9551 27.966 36.4251 27.966C36.7591 27.966 37.0807 27.9165 37.3899 27.8176C37.6991 27.7186 37.9836 27.5826 38.2557 27.4094C38.5154 27.2363 38.7504 27.0384 38.9607 26.791C39.1586 26.5436 39.3317 26.2715 39.4554 25.9747H36.4251V24.6512H41.0633C41.0633 25.2944 40.9396 25.9005 40.6923 26.457C40.4449 27.026 40.1233 27.5084 39.7028 27.9289C39.2823 28.3494 38.7875 28.6834 38.2309 28.9307C37.662 29.1781 37.0683 29.2894 36.4251 29.2894C35.782 29.2894 35.1759 29.1781 34.6193 28.9307C34.0504 28.6834 33.568 28.3494 33.1475 27.9289C32.727 27.5084 32.393 27.026 32.1456 26.457C31.8983 25.9005 31.787 25.2944 31.787 24.6512C31.787 24.0081 31.8983 23.4144 32.1456 22.8454C32.393 22.2889 32.727 21.7941 33.1475 21.3736C33.568 20.9531 34.0504 20.6315 34.6193 20.3841C35.1759 20.1368 35.782 20.0131 36.4251 20.0131C36.8951 20.0131 37.3404 20.0873 37.7733 20.2233C38.1938 20.3594 38.5896 20.5449 38.9607 20.7923C39.3194 21.0397 39.6409 21.3241 39.9378 21.6581C40.2223 21.992 40.4573 22.3631 40.6428 22.7589L39.4802 23.4144C39.3565 23.1176 39.1833 22.8331 38.9854 22.5857C38.7875 22.3383 38.5525 22.1157 38.2804 21.9302C38.0083 21.7447 37.7238 21.5962 37.4146 21.4973C37.093 21.3983 36.7715 21.3365 36.4251 21.3365ZM42.2953 25.9747C42.2953 25.5294 42.3819 25.0965 42.5551 24.6884C42.7282 24.2926 42.9632 23.9339 43.2601 23.637C43.5569 23.3402 43.9156 23.0928 44.3114 22.9197C44.7072 22.7465 45.1401 22.6599 45.6101 22.6599C46.0554 22.6599 46.4883 22.7465 46.8964 22.9197C47.2922 23.0928 47.6509 23.3402 47.9477 23.637C48.2446 23.9339 48.4919 24.2926 48.6651 24.6884C48.8383 25.0965 48.9248 25.5294 48.9248 25.9747C48.9248 26.1973 48.9001 26.4199 48.8506 26.6426H43.7301C43.8661 27.0384 44.1011 27.3599 44.4351 27.6073C44.769 27.8547 45.1648 27.966 45.6101 27.966C45.8946 27.966 46.1667 27.9165 46.4264 27.7928C46.6738 27.6692 46.8964 27.5084 47.0819 27.2981H48.6404C48.5043 27.5949 48.3312 27.8671 48.1333 28.1144C47.923 28.3618 47.688 28.5597 47.4283 28.7328C47.1685 28.906 46.884 29.0421 46.5748 29.141C46.2656 29.24 45.944 29.2894 45.6101 29.2894C45.1401 29.2894 44.7072 29.2028 44.3114 29.0297C43.9156 28.8565 43.5569 28.6215 43.2601 28.3247C42.9632 28.0278 42.7282 27.6692 42.5551 27.2734C42.3819 26.8776 42.2953 26.4447 42.2953 25.9747ZM45.6101 23.9833C45.1648 23.9833 44.769 24.107 44.4351 24.3544C44.1011 24.6018 43.8661 24.9234 43.7301 25.3068H47.4777C47.3417 24.9234 47.1067 24.6018 46.7727 24.3544C46.4264 24.107 46.043 23.9833 45.6101 23.9833ZM54.7967 25.6407C54.7967 25.4181 54.7719 25.1955 54.7225 24.9976C54.673 24.7997 54.6112 24.6141 54.5122 24.4657C54.4133 24.3173 54.2772 24.206 54.1164 24.1194C53.9556 24.0328 53.7577 23.9833 53.5351 23.9833C53.3125 23.9833 53.0775 24.0328 52.8301 24.1194C52.5827 24.206 52.3601 24.3297 52.1622 24.4905C51.9643 24.6512 51.7911 24.8491 51.6675 25.0718C51.5438 25.2944 51.4819 25.5541 51.4819 25.8263V29.2894H50.1585V22.6599H51.4819V23.6741C51.7169 23.3526 52.0014 23.1052 52.3477 22.932C52.694 22.7589 53.0898 22.6599 53.5351 22.6599C53.9433 22.6599 54.3143 22.7465 54.6359 22.8949C54.9575 23.0557 55.2172 23.266 55.4398 23.5381C55.6625 23.8102 55.8233 24.1194 55.947 24.4781C56.0583 24.8491 56.1201 25.2326 56.1201 25.6407V29.2894H54.7967V25.6407ZM57.3573 25.9747C57.3573 25.5294 57.4439 25.0965 57.6171 24.6884C57.7902 24.2926 58.0252 23.9339 58.3221 23.637C58.6189 23.3402 58.9776 23.0928 59.3734 22.9197C59.7692 22.7465 60.2021 22.6599 60.6721 22.6599C61.1174 22.6599 61.5503 22.7465 61.9584 22.9197C62.3542 23.0928 62.7129 23.3402 63.0097 23.637C63.3066 23.9339 63.554 24.2926 63.7271 24.6884C63.9003 25.0965 63.9869 25.5294 63.9869 25.9747C63.9869 26.1973 63.9621 26.4199 63.9126 26.6426H58.7921C58.9281 27.0384 59.1631 27.3599 59.4971 27.6073C59.831 27.8547 60.2268 27.966 60.6721 27.966C60.9566 27.966 61.2287 27.9165 61.4884 27.7928C61.7358 27.6692 61.9584 27.5084 62.1439 27.2981H63.7024C63.5663 27.5949 63.3932 27.8671 63.1953 28.1144C62.985 28.3618 62.75 28.5597 62.4903 28.7328C62.2305 28.906 61.9461 29.0421 61.6368 29.141C61.3276 29.24 61.006 29.2894 60.6721 29.2894C60.2021 29.2894 59.7692 29.2028 59.3734 29.0297C58.9776 28.8565 58.6189 28.6215 58.3221 28.3247C58.0252 28.0278 57.7902 27.6692 57.6171 27.2734C57.4439 26.8776 57.3573 26.4447 57.3573 25.9747ZM60.6721 23.9833C60.2268 23.9833 59.831 24.107 59.4971 24.3544C59.1631 24.6018 58.9281 24.9234 58.7921 25.3068H62.5397C62.4037 24.9234 62.1687 24.6018 61.8347 24.3544C61.4884 24.107 61.105 23.9833 60.6721 23.9833ZM65.2205 22.6599H66.5563V23.7112C66.8655 23.0186 67.3974 22.6723 68.1642 22.6723C68.2632 22.6723 68.3621 22.6847 68.4734 22.6847C68.5724 22.697 68.6837 22.7218 68.8074 22.7465V24.0699C68.6837 24.0328 68.5724 24.0081 68.4734 23.9833C68.3745 23.971 68.2632 23.9586 68.1642 23.9586C67.9539 23.9586 67.7561 24.0081 67.5582 24.0823C67.3603 24.1689 67.1995 24.2926 67.051 24.4534C66.9026 24.6141 66.7789 24.812 66.6924 25.0594C66.5934 25.3068 66.5563 25.6036 66.5563 25.9252V29.2894H65.2205V22.6599ZM73.5151 29.2894C73.3914 29.1781 73.3172 29.0544 73.2678 28.9184C73.0328 29.0421 72.773 29.1286 72.4885 29.1905C72.2041 29.2647 71.8949 29.2894 71.5485 29.2894C71.0785 29.2894 70.6704 29.24 70.2993 29.1163C69.9283 29.005 69.6067 28.8442 69.3346 28.6463C69.0625 28.4484 68.8646 28.2257 68.7162 27.9536C68.5677 27.6815 68.5059 27.3971 68.5059 27.1002C68.5059 26.8034 68.5677 26.5313 68.7162 26.2592C68.8646 25.987 69.0625 25.752 69.3346 25.5541C69.6067 25.3563 69.9283 25.2078 70.2993 25.0841C70.6704 24.9728 71.0785 24.911 71.5485 24.911H73.1317C73.107 24.6884 72.9709 24.4781 72.7235 24.2802C72.4638 24.0823 72.068 23.9833 71.5485 23.9833C71.3506 23.9833 71.1899 23.9957 71.0414 24.0081C70.893 24.0328 70.7446 24.0576 70.6209 24.107C70.4972 24.1565 70.3612 24.2307 70.2375 24.3173C70.1138 24.4039 69.9654 24.5152 69.8169 24.6512L69.0748 23.5752C69.2233 23.4391 69.4088 23.3155 69.6067 23.2041C69.8046 23.0928 70.0272 22.9939 70.2498 22.9073C70.4725 22.8331 70.6951 22.7712 70.9177 22.7218C71.1404 22.6847 71.3506 22.6599 71.5485 22.6599C71.9938 22.6599 72.3896 22.7218 72.7606 22.8454C73.1193 22.9691 73.4285 23.1423 73.6759 23.3526C73.9233 23.5628 74.1212 23.7978 74.2572 24.0699C74.3933 24.342 74.4675 24.6141 74.4675 24.911V27.9907C74.4675 28.2628 74.4799 28.4978 74.5293 28.7081C74.5788 28.9307 74.6778 29.1163 74.8509 29.2894H73.5151ZM71.5485 27.966C72.0928 27.966 72.5009 27.8918 72.7483 27.7186C72.9956 27.5455 73.1317 27.3476 73.1317 27.1002V26.2344H71.5485C70.992 26.2344 70.5714 26.321 70.2746 26.4942C69.9777 26.6673 69.8293 26.8652 69.8293 27.1002C69.8293 27.3476 69.9777 27.5455 70.2746 27.7186C70.5714 27.8918 70.992 27.966 71.5485 27.966ZM75.1733 22.6599H76.1009V21.0273L77.4243 20.6315V22.6599H78.8591V23.9833H77.4243V26.8034C77.4243 27.3105 77.5109 27.6568 77.6841 27.8423C77.8572 28.0278 78.0799 28.1144 78.3767 28.1144C78.488 28.1144 78.6117 28.1021 78.7354 28.0773C78.8591 28.0526 78.9828 28.0278 79.1188 27.9907L79.3043 29.1163C78.8838 29.24 78.5128 29.2894 78.1664 29.2894C77.8696 29.2894 77.5851 29.2523 77.3378 29.1534C77.0904 29.0668 76.8678 28.9184 76.6822 28.7205C76.4967 28.5226 76.3483 28.2752 76.2493 27.9536C76.1504 27.6444 76.1009 27.261 76.1009 26.8034V23.9833H75.1733V22.6599ZM80.5362 22.6599H81.872V29.2894H80.5362V22.6599ZM81.872 22.0044H80.5362V20.0131H81.872V22.0044ZM83.1089 25.9747C83.1089 25.5294 83.1955 25.0965 83.3687 24.6884C83.5418 24.2926 83.7768 23.9339 84.0737 23.637C84.3705 23.3402 84.7292 23.0928 85.125 22.9197C85.5208 22.7465 85.9537 22.6599 86.4237 22.6599C86.8689 22.6599 87.3018 22.7465 87.71 22.9197C88.1058 23.0928 88.4645 23.3402 88.7613 23.637C89.0582 23.9339 89.3055 24.2926 89.4787 24.6884C89.6518 25.0965 89.7384 25.5294 89.7384 25.9747C89.7384 26.4447 89.6518 26.8776 89.4787 27.2734C89.3055 27.6692 89.0582 28.0278 88.7613 28.3247C88.4645 28.6215 88.1058 28.8565 87.71 29.0297C87.3018 29.2028 86.8689 29.2894 86.4237 29.2894C85.9537 29.2894 85.5208 29.2028 85.125 29.0297C84.7292 28.8565 84.3705 28.6215 84.0737 28.3247C83.7768 28.0278 83.5418 27.6692 83.3687 27.2734C83.1955 26.8776 83.1089 26.4447 83.1089 25.9747ZM88.415 25.9747C88.415 25.7026 88.3532 25.4552 88.2542 25.2078C88.1553 24.9605 88.0068 24.7502 87.8337 24.5647C87.6481 24.3915 87.4379 24.2431 87.1905 24.1441C86.9431 24.0452 86.6958 23.9833 86.4237 23.9833C86.1516 23.9833 85.8918 24.0452 85.6445 24.1441C85.3971 24.2431 85.1868 24.3915 85.0137 24.5647C84.8281 24.7502 84.6797 24.9605 84.5808 25.2078C84.4818 25.4552 84.4323 25.7026 84.4323 25.9747C84.4323 26.2468 84.4818 26.5065 84.5808 26.7539C84.6797 27.0013 84.8281 27.2115 85.0137 27.3847C85.1868 27.5702 85.3971 27.7186 85.6445 27.8176C85.8918 27.9165 86.1516 27.966 86.4237 27.966C86.6958 27.966 86.9431 27.9165 87.1905 27.8176C87.4379 27.7186 87.6481 27.5702 87.8337 27.3847C88.0068 27.2115 88.1553 27.0013 88.2542 26.7539C88.3532 26.5065 88.415 26.2468 88.415 25.9747ZM95.6103 25.6407C95.6103 25.4181 95.5855 25.1955 95.5361 24.9976C95.4866 24.7997 95.4247 24.6141 95.3258 24.4657C95.2268 24.3173 95.0908 24.206 94.93 24.1194C94.7692 24.0328 94.5713 23.9833 94.3487 23.9833C94.126 23.9833 93.891 24.0328 93.6437 24.1194C93.3963 24.206 93.1737 24.3297 92.9758 24.4905C92.7779 24.6512 92.6047 24.8491 92.481 25.0718C92.3574 25.2944 92.2955 25.5541 92.2955 25.8263V29.2894H90.9721V22.6599H92.2955V23.6741C92.5305 23.3526 92.815 23.1052 93.1613 22.932C93.5076 22.7589 93.9034 22.6599 94.3487 22.6599C94.7568 22.6599 95.1279 22.7465 95.4495 22.8949C95.7711 23.0557 96.0308 23.266 96.2534 23.5381C96.4761 23.8102 96.6368 24.1194 96.7605 24.4781C96.8718 24.8491 96.9337 25.2326 96.9337 25.6407V29.2894H95.6103V25.6407Z" fill="black"/>
<path d="M11.3045 20.4174L9.91578 18.8218C9.91578 18.8218 9.91578 18.8082 9.91578 18.8036C2.46365 10.5334 4.779 2.98765 13.1985 2.42719C26.065 1.57055 23.7542 10.7566 23.7542 10.7566C23.7542 10.7566 25.4246 8.22774 25.8411 6.55091C26.3741 4.41842 26.9339 0.973633 14.9272 0.973633C6.80326 0.978189 -2.57908 2.21303 0.654358 10.2372C1.85458 13.2127 5.40062 15.9722 8.36535 18.3826C9.11945 18.9957 10.3915 19.9061 11.3045 20.4174Z" fill="url(#paint0_linear_2_423)"/>
<path d="M26.1368 33.7628C24.9366 30.7874 22.0928 27.8803 19.128 25.4698C18.0422 24.6925 16.8167 23.9528 16.0525 23.5826L16.9568 24.2609C16.9568 24.2609 16.0525 23.5735 16.0525 23.5826C23.5091 31.8528 22.0166 41.0124 13.5927 41.5728C0.726101 42.4295 3.03698 33.2434 3.03698 33.2434C3.03698 33.2434 1.36652 35.7723 0.950023 37.4491C0.417088 39.5816 -0.142718 43.0264 11.864 43.0264C19.9879 43.0264 29.3747 41.7916 26.1413 33.7674L26.1368 33.7628Z" fill="url(#paint1_linear_2_423)"/>
<rect x="18.0789" y="12.5957" width="3.87924" height="4.46588" rx="1.93962" fill="url(#paint2_linear_2_423)"/>
<rect x="11.9448" y="20.0209" width="3.87924" height="4.46588" rx="1.93962" fill="url(#paint3_linear_2_423)"/>
<rect x="5.4883" y="26.4775" width="3.87924" height="4.46588" rx="1.93962" fill="url(#paint4_linear_2_423)"/>
<rect x="72.2319" y="1.46838" width="25.7264" height="11.379" rx="5.6895" fill="url(#paint5_linear_2_423)"/>
<path d="M76.7877 3.77891H77.7495V9.50502H82.0419V10.4579H76.7877V3.77891ZM86.5429 10.4579C86.4538 10.3777 86.4004 10.2887 86.3648 10.1907C86.1956 10.2798 86.0086 10.3421 85.8037 10.3866C85.5989 10.4401 85.3763 10.4579 85.1269 10.4579C84.7885 10.4579 84.4947 10.4223 84.2275 10.3332C83.9603 10.2531 83.7288 10.1373 83.5329 9.99481C83.337 9.85232 83.1945 9.69203 83.0876 9.49611C82.9808 9.3002 82.9362 9.09537 82.9362 8.88165C82.9362 8.66792 82.9808 8.472 83.0876 8.27609C83.1945 8.08017 83.337 7.91097 83.5329 7.76848C83.7288 7.626 83.9603 7.51913 84.2275 7.43008C84.4947 7.34993 84.7885 7.30541 85.1269 7.30541H86.2668C86.249 7.14511 86.151 6.99372 85.9729 6.85124C85.7859 6.70875 85.501 6.63751 85.1269 6.63751C84.9845 6.63751 84.8687 6.64641 84.7618 6.65532C84.655 6.67313 84.5481 6.69094 84.459 6.72656C84.37 6.76218 84.272 6.81562 84.183 6.87795C84.0939 6.94029 83.9871 7.02044 83.8802 7.1184L83.3459 6.34363C83.4527 6.24568 83.5863 6.15662 83.7288 6.07647C83.8713 5.99633 84.0316 5.92508 84.1919 5.86275C84.3522 5.80932 84.5125 5.76479 84.6728 5.72917C84.8331 5.70245 84.9845 5.68464 85.1269 5.68464C85.4475 5.68464 85.7325 5.72917 85.9997 5.81822C86.2579 5.90727 86.4805 6.03195 86.6586 6.18334C86.8368 6.33473 86.9792 6.50393 87.0772 6.69985C87.1752 6.89576 87.2286 7.09168 87.2286 7.30541V9.52283C87.2286 9.71875 87.2375 9.88795 87.2731 10.0393C87.3087 10.1996 87.38 10.3332 87.5047 10.4579H86.5429ZM85.1269 9.50502C85.5188 9.50502 85.8126 9.45159 85.9908 9.32691C86.1689 9.20224 86.2668 9.05975 86.2668 8.88165V8.25827H85.1269C84.7262 8.25827 84.4234 8.32061 84.2097 8.44529C83.996 8.56996 83.8891 8.71245 83.8891 8.88165C83.8891 9.05975 83.996 9.20224 84.2097 9.32691C84.4234 9.45159 84.7262 9.50502 85.1269 9.50502ZM87.9542 3.77891H88.907V6.32582C89.1119 6.12991 89.3523 5.96961 89.6284 5.85384C89.9044 5.74698 90.2072 5.68464 90.5278 5.68464C90.8484 5.68464 91.1601 5.74698 91.4539 5.87165C91.7389 5.99633 91.9972 6.17443 92.2109 6.38816C92.4246 6.60189 92.5938 6.86014 92.7185 7.14511C92.8432 7.43899 92.9055 7.75067 92.9055 8.07126C92.9055 8.40967 92.8432 8.72135 92.7185 9.00632C92.5938 9.29129 92.4246 9.54954 92.2109 9.76327C91.9972 9.977 91.7389 10.1462 91.4539 10.2709C91.1601 10.3955 90.8484 10.4579 90.5278 10.4579C90.2072 10.4579 89.9044 10.4045 89.6284 10.2887C89.3523 10.1818 89.1119 10.0215 88.907 9.82561V10.4579H87.9542V3.77891ZM91.7656 8.07126C91.7656 7.87535 91.7211 7.69724 91.6499 7.51913C91.5786 7.34103 91.4718 7.18964 91.3471 7.05606C91.2135 6.93138 91.0621 6.82452 90.884 6.75328C90.7059 6.68204 90.5278 6.63751 90.3319 6.63751C90.136 6.63751 89.9579 6.67313 89.7887 6.74437C89.6195 6.81562 89.4681 6.91357 89.3434 7.03825C89.2098 7.16292 89.1029 7.31431 89.0317 7.48351C88.9516 7.65271 88.907 7.83082 88.907 8.01783V8.07126C88.907 8.26718 88.9427 8.45419 89.0139 8.6323C89.0851 8.8104 89.192 8.96179 89.3167 9.08647C89.4413 9.22005 89.5927 9.32691 89.7708 9.39815C89.949 9.4694 90.136 9.50502 90.3319 9.50502C90.5278 9.50502 90.7059 9.4694 90.884 9.39815C91.0621 9.32691 91.2135 9.22005 91.3471 9.08647C91.4718 8.96179 91.5786 8.8104 91.6499 8.6323C91.7211 8.45419 91.7656 8.26718 91.7656 8.07126Z" fill="white"/>
<defs>
<linearGradient id="paint0_linear_2_423" x1="-0.840982" y1="-4.65885" x2="4.18467" y2="24.1464" gradientUnits="userSpaceOnUse">
<stop stop-color="#1E1E1E"/>
<stop offset="0.510417" stop-color="#FED46A"/>
<stop offset="1" stop-color="#1E1E1E"/>
</linearGradient>
<linearGradient id="paint1_linear_2_423" x1="-0.113807" y1="18.5068" x2="4.91108" y2="47.3123" gradientUnits="userSpaceOnUse">
<stop stop-color="#1E1E1E"/>
<stop offset="0.510417" stop-color="#FED46A"/>
<stop offset="1" stop-color="#1E1E1E"/>
</linearGradient>
<linearGradient id="paint2_linear_2_423" x1="18.0789" y1="10.6286" x2="19.9065" y2="19.0619" gradientUnits="userSpaceOnUse">
<stop/>
<stop offset="0.479167" stop-color="#FED46A"/>
<stop offset="1"/>
</linearGradient>
<linearGradient id="paint3_linear_2_423" x1="11.9448" y1="18.0538" x2="13.7725" y2="26.4871" gradientUnits="userSpaceOnUse">
<stop/>
<stop offset="0.479167" stop-color="#FED46A"/>
<stop offset="1"/>
</linearGradient>
<linearGradient id="paint4_linear_2_423" x1="5.4883" y1="24.5104" x2="7.31597" y2="32.9438" gradientUnits="userSpaceOnUse">
<stop/>
<stop offset="0.479167" stop-color="#FED46A"/>
<stop offset="1"/>
</linearGradient>
<linearGradient id="paint5_linear_2_423" x1="67.7636" y1="-2.20609" x2="99.062" y2="18.6141" gradientUnits="userSpaceOnUse">
<stop/>
<stop offset="0.53125" stop-color="#FED46A"/>
<stop offset="1"/>
</linearGradient>
</defs>
</svg>
